<svg id="Layer_1" data-name="Layer 1" xmlns="http://www.w3.org/2000/svg" viewBox="0 0 231.24 267.94"><defs><style>.cls-1{fill:#283980;}.cls-2{fill:#22654b;}.cls-3{fill:#248dbb;}.cls-4{fill:#41519b;}.cls-5{fill:#47c3d3;}.cls-6{fill:#1fb57b;}</style></defs><title>stc-logo</title><path class="cls-1" d="M232,178.53v-.6a.91.91,0,0,0,0-.17,15.52,15.52,0,0,1,0-1.94c0-.21,0-.46,0-.72a.87.87,0,0,1,0-.1l-18.76-10.65-92.54,53.43,23.19,13.39,88.06-50.68c0-.3,0-.66.05-1S232,178.83,232,178.53Z" transform="translate(-0.76 -0.98)"/><polyline class="cls-1" points="231.18 79.96 230.94 66.92 217.13 59.25 114.94 116.48 115.26 134.87"/><polygon class="cls-2" points="115.47 116.08 115.47 142.88 23 89.39 23 62.69 115.47 116.08"/><polygon class="cls-3" points="67.36 70.06 91.81 56.99 184.56 109.3 160.49 122.89 67.36 70.06"/><polygon class="cls-2" points="43.09 93.43 22.98 84.51 22.98 134.96 43.09 134.96 43.09 93.43"/><polygon class="cls-3" points="107.03 51.55 105.73 33.02 21.25 80.42 19.35 100.75 107.03 51.55"/><polyline class="cls-3" points="143.56 17.55 143.57 13.02 60.25 59.66 63.28 74.63 143.56 29.69 143.56 17.55"/><polyline class="cls-2" points="117.06 222.25 98.1 231.04 0.22 174.65 18.01 165.18"/><polyline class="cls-2" points="137.54 181.75 119.05 190.24 22.98 134.45 40.32 125.3"/><polyline class="cls-4" points="230.98 67.79 115.59 134.41 115.59 267.88 230.98 201.26 231.18 174.21 138.44 227.92 138.3 147.38 231.18 94.37 231.08 80.84"/><line class="cls-5" x1="116.74" y1="2.06" x2="27.84" y2="52.2"/><polyline class="cls-5" points="18.18 57.65 0 67.9 23.19 80.98 70.96 53.32 164.09 106.14 188.17 92.56 95.42 40.24 143.57 13.08 120.38 0 116.74 2.06"/><polygon class="cls-6" points="0 67.73 115.59 134.47 115.59 161.16 23.12 107.78 23.12 134.47 115.59 187.86 115.59 267.94 0 201.21 0 174.51 92.47 227.9 92.47 201.21 0 147.82 0 67.73"/><polyline class="cls-2" points="54.63 80.95 38.53 89.98 23.19 80.98 39.08 71.78"/><polyline class="cls-1" points="164.09 106.14 147.91 115.75 132.18 106.83 148.85 97.49"/></svg>